<svg width="159" height="55" viewBox="0 0 159 55" fill="none" xmlns="http://www.w3.org/2000/svg">
<path d="M13.156 14.872H12.628C10.0173 14.872 7.97867 15.532 6.512 16.852C5.07467 18.1427 4.356 20.4453 4.356 23.76C4.356 24.8453 4.45867 25.608 4.664 26.048C4.86933 26.4587 4.972 26.6933 4.972 26.752C3.388 26.752 2.2 26.4293 1.408 25.784C0.645333 25.1093 0.264 24.0093 0.264 22.484C0.264 20.4013 0.777333 18.5093 1.804 16.808C2.83067 15.0773 4.45867 13.684 6.688 12.628C8.94667 11.572 11.8067 11.044 15.268 11.044C17.204 11.044 19.2867 11.22 21.516 11.572C23.3933 11.8947 25.0653 12.056 26.532 12.056C28.4093 12.056 30.1107 11.748 31.636 11.132C31.5773 13.0387 31.0933 14.4467 30.184 15.356C29.2747 16.2653 27.9253 16.72 26.136 16.72C25.1973 16.72 24.2587 16.6467 23.32 16.5C22.3813 16.3533 21.0467 16.104 19.316 15.752L13.244 44H6.908L13.156 14.872ZM24.1756 22H30.5116L29.9396 24.728C30.9369 23.848 31.8316 23.1733 32.6236 22.704C33.4449 22.2347 34.3249 22 35.2636 22C36.2023 22 36.9356 22.3227 37.4636 22.968C38.0209 23.6133 38.2996 24.3907 38.2996 25.3C38.2996 26.1507 38.0209 26.8987 37.4636 27.544C36.9063 28.1893 36.1289 28.512 35.1316 28.512C34.4863 28.512 34.0463 28.3653 33.8116 28.072C33.6063 27.7493 33.4449 27.2947 33.3276 26.708C33.2396 26.3267 33.1516 26.048 33.0636 25.872C32.9756 25.696 32.8143 25.608 32.5796 25.608C31.9636 25.608 31.4356 25.74 30.9956 26.004C30.5849 26.2387 30.0423 26.664 29.3676 27.28L25.8476 44H19.5116L24.1756 22ZM43.0066 44.264C41.3346 44.264 39.9412 43.692 38.8266 42.548C37.7119 41.404 37.1546 39.6147 37.1546 37.18C37.1546 35.0093 37.5799 32.736 38.4306 30.36C39.3106 27.9547 40.6012 25.9307 42.3026 24.288C44.0332 22.616 46.0866 21.78 48.4626 21.78C49.6652 21.78 50.5599 21.9853 51.1466 22.396C51.7332 22.8067 52.0266 23.3493 52.0266 24.024V24.332L52.5106 22H58.8466L55.6786 36.96C55.5612 37.4 55.5026 37.8693 55.5026 38.368C55.5026 39.6293 56.1039 40.26 57.3066 40.26C58.1279 40.26 58.8319 39.8787 59.4186 39.116C60.0346 38.3533 60.5186 37.356 60.8706 36.124H62.7186C61.6332 39.292 60.2839 41.448 58.6706 42.592C57.0866 43.7067 55.4879 44.264 53.8746 44.264C52.6426 44.264 51.6452 43.9267 50.8826 43.252C50.1492 42.548 49.7092 41.536 49.5626 40.216C48.7119 41.4187 47.7586 42.4013 46.7026 43.164C45.6759 43.8973 44.4439 44.264 43.0066 44.264ZM45.8666 39.996C46.5999 39.996 47.3186 39.6587 48.0226 38.984C48.7559 38.28 49.2546 37.3267 49.5186 36.124L51.6306 26.18C51.6306 25.7987 51.4839 25.432 51.1906 25.08C50.8972 24.6987 50.4426 24.508 49.8266 24.508C48.6532 24.508 47.5972 25.1973 46.6586 26.576C45.7199 27.9253 44.9866 29.568 44.4586 31.504C43.9306 33.4107 43.6666 35.0973 43.6666 36.564C43.6666 38.0307 43.8719 38.9693 44.2826 39.38C44.7226 39.7907 45.2506 39.996 45.8666 39.996ZM65.9027 44.264C64.2014 44.264 62.8667 43.8387 61.8987 42.988C60.9601 42.108 60.4907 40.8027 60.4907 39.072C60.4907 38.368 60.5641 37.664 60.7107 36.96L63.8787 22H70.2147L67.0467 36.96C66.9001 37.6933 66.8267 38.2213 66.8267 38.544C66.8267 39.512 67.3254 39.996 68.3227 39.996C69.6721 39.996 70.9187 39.1453 72.0627 37.444C73.2361 35.7427 74.1747 33.7187 74.8787 31.372C75.5827 29.0253 75.9347 27.0013 75.9347 25.3C75.8761 25.4467 75.6854 25.564 75.3627 25.652C75.0401 25.7107 74.7614 25.74 74.5267 25.74C74.0281 25.74 73.6321 25.5053 73.3387 25.036C73.0747 24.5667 72.9427 24.0533 72.9427 23.496C72.9427 22.792 73.1627 22.22 73.6027 21.78C74.0721 21.34 74.7614 21.12 75.6707 21.12C76.6387 21.12 77.3427 21.4867 77.7827 22.22C78.2227 22.924 78.4427 23.8333 78.4427 24.948C78.4427 27.588 77.9881 30.4187 77.0787 33.44C76.1694 36.432 74.7761 38.984 72.8987 41.096C71.0214 43.208 68.6894 44.264 65.9027 44.264ZM85.3975 44.264C83.2268 44.264 81.5401 43.7067 80.3375 42.592C79.1348 41.448 78.5335 39.6733 78.5335 37.268C78.5335 35.244 78.9295 33.0147 79.7215 30.58C80.5135 28.1453 81.8041 26.048 83.5935 24.288C85.3828 22.4987 87.6561 21.604 90.4135 21.604C93.6401 21.604 95.2535 23.012 95.2535 25.828C95.2535 27.4707 94.7841 28.9813 93.8455 30.36C92.9068 31.7387 91.6601 32.8533 90.1055 33.704C88.5508 34.5253 86.8935 34.9947 85.1335 35.112C85.0748 35.992 85.0455 36.5787 85.0455 36.872C85.0455 38.3093 85.2948 39.292 85.7935 39.82C86.2921 40.3187 87.0988 40.568 88.2135 40.568C89.7975 40.568 91.1468 40.2013 92.2615 39.468C93.4055 38.7347 94.6521 37.62 96.0015 36.124H97.4975C94.2415 41.5507 90.2081 44.264 85.3975 44.264ZM85.4855 33C86.5708 32.9413 87.5975 32.56 88.5655 31.856C89.5628 31.152 90.3548 30.2573 90.9415 29.172C91.5575 28.0867 91.8655 26.9427 91.8655 25.74C91.8655 24.5373 91.4988 23.936 90.7655 23.936C89.7095 23.936 88.6681 24.86 87.6415 26.708C86.6441 28.556 85.9255 30.6533 85.4855 33ZM100.26 44.264C98.8522 44.264 97.7082 43.824 96.8282 42.944C95.9775 42.0347 95.5522 40.6853 95.5522 38.896C95.5522 38.1627 95.6695 37.2093 95.9042 36.036L100.612 13.992L107.124 13.112L102.064 36.872C101.947 37.312 101.888 37.7373 101.888 38.148C101.888 39.3213 102.49 39.908 103.692 39.908C104.22 39.908 104.69 39.82 105.1 39.644C104.983 41.1107 104.455 42.2547 103.516 43.076C102.607 43.868 101.522 44.264 100.26 44.264Z" fill="white"/>
<path d="M139 46C148.941 46 157 37.941 157 28C157 18.0589 148.941 10 139 10C129.059 10 121 18.0589 121 28C121 37.941 129.059 46 139 46Z" stroke="white" stroke-width="3" stroke-linecap="round" stroke-linejoin="round"/>
<path d="M121.9 28.9L131.8 32.5L130 38.8L131.8 44.2" stroke="white" stroke-width="3" stroke-linecap="round" stroke-linejoin="round"/>
<path d="M148 43.3L147.1 38.8L142.6 37V30.7L148 28.9L156.1 29.8" stroke="white" stroke-width="3" stroke-linecap="round" stroke-linejoin="round"/>
<path d="M151.6 16.3L150.7 19L144.4 19.9V25.3L148.9 23.5H152.5L156.1 25.3" stroke="white" stroke-width="3" stroke-linecap="round" stroke-linejoin="round"/>
<path d="M121.9 26.2L127.043 22.36L132.186 21.4L136.3 15.64L134.243 11.8" stroke="white" stroke-width="3" stroke-linecap="round" stroke-linejoin="round"/>
</svg>
